<svg id="visual" viewBox="0 0 900 600" width="900" height="600" xmlns="http://www.w3.org/2000/svg" xmlns:xlink="http://www.w3.org/1999/xlink" version="1.1"><rect x="0" y="0" width="900" height="600" fill="#001220"></rect><path d="M0 421L21.5 417.3C43 413.7 86 406.3 128.8 397.2C171.7 388 214.3 377 257.2 369.5C300 362 343 358 385.8 367.8C428.7 377.7 471.3 401.3 514.2 414.2C557 427 600 429 642.8 424.3C685.7 419.7 728.3 408.3 771.2 410.5C814 412.7 857 428.3 878.5 436.2L900 444L900 601L878.5 601C857 601 814 601 771.2 601C728.3 601 685.7 601 642.8 601C600 601 557 601 514.2 601C471.3 601 428.7 601 385.8 601C343 601 300 601 257.2 601C214.3 601 171.7 601 128.8 601C86 601 43 601 21.5 601L0 601Z" fill="#fa7268"></path><path d="M0 394L21.5 396.3C43 398.7 86 403.3 128.8 416.5C171.7 429.7 214.3 451.3 257.2 457C300 462.7 343 452.3 385.8 448.7C428.7 445 471.3 448 514.2 440.3C557 432.7 600 414.3 642.8 407.3C685.7 400.3 728.3 404.7 771.2 405.8C814 407 857 405 878.5 404L900 403L900 601L878.5 601C857 601 814 601 771.2 601C728.3 601 685.7 601 642.8 601C600 601 557 601 514.2 601C471.3 601 428.7 601 385.8 601C343 601 300 601 257.2 601C214.3 601 171.7 601 128.8 601C86 601 43 601 21.5 601L0 601Z" fill="#ef5f67"></path><path d="M0 439L21.5 443.8C43 448.7 86 458.3 128.8 464.2C171.7 470 214.3 472 257.2 467.2C300 462.3 343 450.7 385.8 445C428.7 439.3 471.3 439.7 514.2 450C557 460.3 600 480.7 642.8 491.8C685.7 503 728.3 505 771.2 500.3C814 495.7 857 484.3 878.5 478.7L900 473L900 601L878.5 601C857 601 814 601 771.2 601C728.3 601 685.7 601 642.8 601C600 601 557 601 514.2 601C471.3 601 428.7 601 385.8 601C343 601 300 601 257.2 601C214.3 601 171.7 601 128.8 601C86 601 43 601 21.5 601L0 601Z" fill="#e34c67"></path><path d="M0 542L21.5 538.2C43 534.3 86 526.7 128.8 524.2C171.7 521.7 214.3 524.3 257.2 524.7C300 525 343 523 385.8 525.3C428.7 527.7 471.3 534.3 514.2 535.2C557 536 600 531 642.8 530.8C685.7 530.7 728.3 535.3 771.2 531.2C814 527 857 514 878.5 507.5L900 501L900 601L878.5 601C857 601 814 601 771.2 601C728.3 601 685.7 601 642.8 601C600 601 557 601 514.2 601C471.3 601 428.7 601 385.8 601C343 601 300 601 257.2 601C214.3 601 171.7 601 128.8 601C86 601 43 601 21.5 601L0 601Z" fill="#d53867"></path><path d="M0 546L21.5 545.3C43 544.7 86 543.3 128.8 547.3C171.7 551.3 214.3 560.7 257.2 562.3C300 564 343 558 385.8 555.2C428.7 552.3 471.3 552.7 514.2 555.5C557 558.3 600 563.7 642.8 564.3C685.7 565 728.3 561 771.2 556.7C814 552.3 857 547.7 878.5 545.3L900 543L900 601L878.5 601C857 601 814 601 771.2 601C728.3 601 685.7 601 642.8 601C600 601 557 601 514.2 601C471.3 601 428.7 601 385.8 601C343 601 300 601 257.2 601C214.3 601 171.7 601 128.8 601C86 601 43 601 21.5 601L0 601Z" fill="#c62368"></path></svg>