<?xml version="1.0" encoding="UTF-8" standalone="no"?>
<svg
   width="3000"
   height="3000"
   viewBox="0 0 793.74019 793.73995"
   version="1.1"
   id="svg8"
   inkscape:version="1.1 (c68e22c387, 2021-05-23)"
   sodipodi:docname="logo1.svg"
   inkscape:export-filename="C:\Gambar\Logo Wahyu\Logo 4\LW. b.2.png"
   inkscape:export-xdpi="96"
   inkscape:export-ydpi="96"
   xmlns:inkscape="http://www.inkscape.org/namespaces/inkscape"
   xmlns:sodipodi="http://sodipodi.sourceforge.net/DTD/sodipodi-0.dtd"
   xmlns="http://www.w3.org/2000/svg"
   xmlns:svg="http://www.w3.org/2000/svg"
   xmlns:rdf="http://www.w3.org/1999/02/22-rdf-syntax-ns#"
   xmlns:cc="http://creativecommons.org/ns#"
   xmlns:dc="http://purl.org/dc/elements/1.1/">
  <defs
     id="defs2" />
  <sodipodi:namedview
     id="base"
     pagecolor="#ffffff"
     bordercolor="#666666"
     borderopacity="1.0"
     inkscape:pageopacity="0.0"
     inkscape:pageshadow="2"
     inkscape:zoom="0.11313708"
     inkscape:cx="2289.2582"
     inkscape:cy="1489.3437"
     inkscape:document-units="px"
     inkscape:current-layer="layer1"
     inkscape:document-rotation="0"
     showgrid="false"
     inkscape:window-width="1366"
     inkscape:window-height="705"
     inkscape:window-x="-8"
     inkscape:window-y="-8"
     inkscape:window-maximized="1"
     inkscape:pagecheckerboard="0"
     showborder="true"
     scale-x="0.26458"
     units="px" />
  <metadata
     id="metadata5">
    <rdf:RDF>
      <cc:Work
         rdf:about="">
        <dc:format>image/svg+xml</dc:format>
        <dc:type
           rdf:resource="http://purl.org/dc/dcmitype/StillImage" />
      </cc:Work>
    </rdf:RDF>
  </metadata>
  <g
     inkscape:label="Layer 1"
     inkscape:groupmode="layer"
     id="layer1">
    <ellipse
       style="fill:#e5e5e5;fill-opacity:1;stroke:none;stroke-width:11.0823;stroke-miterlimit:4;stroke-dasharray:none;stroke-opacity:1"
       id="path20412"
       cx="399.80396"
       cy="397.77231"
       inkscape:export-xdpi="96"
       inkscape:export-ydpi="96"
       rx="384.08066"
       ry="384.08109" />
    <path
       id="path16557"
       style="fill:#5b4cff;fill-opacity:1;stroke-width:7.93752;stroke-linecap:round;stroke-linejoin:round"
       d="m 144.18788,189.39836 v 55.05573 361.69219 H 199.2436 V 244.45409 h 338.19957 a 62.920837,62.920837 0 0 1 62.92114,62.92084 62.920837,62.920837 0 0 1 -62.25073,62.86215 117.97657,117.97657 0 0 0 -0.67041,-0.0431 v 0.10256 h -16.0556 l -59.03195,-102.2475 h -55.05576 a 102.24636,102.24636 0 0 1 -72.94822,97.9363 l -56.54362,-97.93622 h -63.57253 l 90.81843,157.30207 78.65099,136.22762 25.7308,44.56722 h 63.5731 64.43436 2.1358 v -0.21022 A 117.97657,117.97657 0 0 0 655.42004,488.16971 117.97657,117.97657 0 0 0 612.91136,397.77203 117.97657,117.97657 0 0 0 655.41973,307.375 117.97657,117.97657 0 0 0 537.44317,189.3984 Z m 298.43649,154.58708 46.97675,81.36602 h 14.90356 32.93849 1.02853 a 62.920837,62.920837 0 0 1 61.89261,62.81826 62.920837,62.920837 0 0 1 -62.92114,62.92083 H 441.22253 L 431.38448,534.05119 362.1186,414.07855 a 157.30209,157.30209 0 0 0 80.50577,-70.09311 z" />
  </g>
</svg>
